<svg xmlns="http://www.w3.org/2000/svg" width="179.5" height="52.757" viewBox="0 0 179.5 52.757">
  <path id="icons8-fiverr" d="M150.407,36.348V30.813h-10.5l-4.615-.079a8.078,8.078,0,0,0-7.7,5.615V30.813H115.835V66.705h11.758V47.1a6.476,6.476,0,0,1,6.478-6.478h4.582V66.705h11.758V47.1a6.476,6.476,0,0,1,6.478-6.478h5.838v-9.8l-4.615-.079A8.085,8.085,0,0,0,150.407,36.348ZM66.736,31.565,60.427,52.307,54.118,31.565H42.361L55.133,67.457H65.722L78.494,31.565Zm-48.046,0V29.173a3.793,3.793,0,0,1,3.795-3.795h7.424V15.534h-10.2A12.781,12.781,0,0,0,6.932,28.313v3.255H.059v9.513H6.932V67.46H18.694V41.082H29.909V67.46H41.666V31.568H18.69Zm76.1-.482H93.363A17.441,17.441,0,0,0,75.922,48.524v1.971A17.441,17.441,0,0,0,93.363,67.935h3.183a15.693,15.693,0,0,0,14.56-9.837L100.732,55.07a5.776,5.776,0,0,1-5.568,3.554c-4.884,0-7.47-2.676-7.812-5.7h0V52.9a5.845,5.845,0,0,1-.036-.665h24.926V48.524A17.442,17.442,0,0,0,94.794,31.083ZM87.327,45.315a6.065,6.065,0,0,1,6.057-5.8h1.122a6.065,6.065,0,0,1,6.057,5.8Zm84.92,8.352a7.312,7.312,0,1,0,7.312,7.312A7.311,7.311,0,0,0,172.247,53.667Z" transform="translate(-0.059 -15.534)"/>
</svg>
