<svg xmlns="http://www.w3.org/2000/svg" width="2019.903" height="1225.925" viewBox="0 0 2019.903 1225.925">
  <g id="Group_1" data-name="Group 1" transform="translate(43.292 92.434)" opacity="0.3">
    <rect id="Rectangle_1" data-name="Rectangle 1" width="1920" height="1080" fill="none" opacity="0.35"/>
    <path id="Path_1" data-name="Path 1" d="M0,56.824,1926.467,32.8v92.4H-24.947l11.088,97.94,1988.372-16.631-36.959,109.028H-24.947L-41.578,443.041l1999.46-48.046V496.631L-24.947,550.221l11.088,72.069H1937.554v97.94H-24.947V821.867l1982.829-14.783-20.327,110.876H-24.947v90.548l1962.5-24.023,11.088,86.853H-24.947" fill="none" stroke="#e6e6e6" stroke-width="3" opacity="0.35"/>
    <path id="Path_2" data-name="Path 2" d="M30.491-91.011V1108.3H95.168L130.279-91.011,209.74-61.444V1132.319l81.309-12.936L322.464-42.964h116.42L413.012,1108.3l94.244,11.088V-42.964H618.133L595.957,1108.3H708.681V-42.964H819.557L780.75,1119.383l70.221-11.088L887.93-31.877h116.42L924.889,1108.3h105.332L1078.267-31.877h81.309L1128.161,1108.3l120.115,11.088L1227.949-42.964H1318.5l14.783,1162.348L1449.7,1108.3,1410.894-61.444l134.9,18.479L1529.162,1108.3h97.94V-42.964h107.18L1715.8,1108.3H1834.07l22.175-1151.26s46.2-5.544,46.2,0V1119.383" fill="none" stroke="#e6e6e6" stroke-width="2" opacity="0.35"/>
  </g>
</svg>
